<svg class="text-black " width="24" height="24" viewBox="0 0 24 24" fill="none" xmlns="http://www.w3.org/2000/svg">
    <path fill-rule="evenodd" clip-rule="evenodd" d="M11.8986 0.219727C5.33541 0.219727 0.0195312 5.5356 0.0195312 12.0988C0.0195312 17.3553 3.41991 21.7951 8.14183 23.369C8.73579 23.473 8.95852 23.1166 8.95852 22.8048C8.95852 22.5226 8.94367 21.5872 8.94367 20.5923C5.95906 21.1417 5.18692 19.8647 4.94934 19.1965C4.8157 18.855 4.2366 17.8007 3.73174 17.5186C3.31597 17.2959 2.72202 16.7465 3.71689 16.7316C4.65236 16.7168 5.32056 17.5928 5.54329 17.9492C6.61241 19.7459 8.32002 19.2411 9.00307 18.9292C9.10701 18.1571 9.41883 17.6374 9.76035 17.3404C7.11727 17.0434 4.35539 16.0189 4.35539 11.4751C4.35539 10.1833 4.8157 9.11417 5.57299 8.28263C5.4542 7.98566 5.03843 6.76805 5.69178 5.13469C5.69178 5.13469 6.68665 4.82286 8.95852 6.35229C9.90884 6.08501 10.9186 5.95137 11.9283 5.95137C12.938 5.95137 13.9477 6.08501 14.898 6.35229C17.1699 4.80801 18.1648 5.13469 18.1648 5.13469C18.8181 6.76805 18.4024 7.98566 18.2836 8.28263C19.0409 9.11417 19.5012 10.1684 19.5012 11.4751C19.5012 16.0337 16.7244 17.0434 14.0814 17.3404C14.512 17.7116 14.8832 18.4244 14.8832 19.538C14.8832 21.1269 14.8683 22.4039 14.8683 22.8048C14.8683 23.1166 15.0911 23.4878 15.685 23.369C20.3773 21.7951 23.7776 17.3404 23.7776 12.0988C23.7776 5.5356 18.4618 0.219727 11.8986 0.219727Z" fill="currentColor"></path>
</svg>