<svg width="25" height="19" viewBox="0 0 25 19" fill="none" xmlns="http://www.w3.org/2000/svg">
    <path d="M2.52391 18.8209H6.34174V9.54903L0.887695 5.4585V17.1847C0.887695 18.0901 1.62126 18.8209 2.52391 18.8209Z" fill="#4285F4"></path>
    <path d="M19.4297 18.8209H23.2475C24.1529 18.8209 24.8837 18.0873 24.8837 17.1847V5.4585L19.4297 9.54903" fill="#34A853"></path>
    <path d="M19.4297 2.45921V9.54947L24.8837 5.45894V3.27732C24.8837 1.25387 22.5739 0.100341 20.9568 1.31386" fill="#FBBC04"></path>
    <path d="M6.34766 9.54924V2.45898L12.8925 7.36762L19.4374 2.45898V9.54924L12.8925 14.4579" fill="#EA4335"></path>
    <path d="M0.886719 3.27732V5.45894L6.34076 9.54947V2.45921L4.81363 1.31386C3.19378 0.100341 0.886719 1.25387 0.886719 3.27732Z" fill="#C5221F"></path>
</svg>